<mxfile host="65bd71144e">
    <diagram id="cHCpErGMjKCbCsAOaHz4" name="Page-1">
        <mxGraphModel dx="2200" dy="1475" grid="1" gridSize="10" guides="1" tooltips="1" connect="1" arrows="1" fold="1" page="1" pageScale="1" pageWidth="850" pageHeight="1100" math="0" shadow="0">
            <root>
                <mxCell id="0"/>
                <mxCell id="1" parent="0"/>
                <mxCell id="2" value="Cloud Provider" style="shape=mxgraph.ibm.box;prType=cloud;fontStyle=0;verticalAlign=top;align=left;spacingLeft=32;spacingTop=4;fillColor=none;rounded=0;whiteSpace=wrap;html=1;strokeColor=#4376BB;strokeWidth=3;dashed=0;container=1;spacing=-4;collapsible=0;expand=0;recursiveResize=0;" vertex="1" parent="1">
                    <mxGeometry x="30" y="130" width="1290" height="1120" as="geometry"/>
                </mxCell>
                <mxCell id="3" value="VPC" style="shape=mxgraph.ibm.box;prType=vpc;fontStyle=0;verticalAlign=top;align=left;spacingLeft=32;spacingTop=4;fillColor=none;rounded=0;whiteSpace=wrap;html=1;strokeColor=#00CC66;strokeWidth=2;dashed=0;container=1;spacing=-4;collapsible=0;expand=0;recursiveResize=0;" vertex="1" parent="2">
                    <mxGeometry x="20" y="40" width="1250" height="1070" as="geometry"/>
                </mxCell>
                <mxCell id="4" value="&lt;b&gt;Availability Zone #1&lt;/b&gt;" style="shape=mxgraph.ibm.box;prType=zone;fontStyle=0;verticalAlign=top;align=left;spacingLeft=32;spacingTop=4;fillColor=#E0E0E0;rounded=0;whiteSpace=wrap;html=1;strokeColor=#919191;strokeWidth=1;dashed=0;container=0;spacing=-4;collapsible=0;fontColor=#000000;fontSize=14;" vertex="1" parent="1">
                    <mxGeometry x="80" y="210" width="310" height="1020" as="geometry"/>
                </mxCell>
                <mxCell id="5" value="&lt;b&gt;Availability Zone #2&lt;/b&gt;" style="shape=mxgraph.ibm.box;prType=zone;fontStyle=0;verticalAlign=top;align=left;spacingLeft=32;spacingTop=4;fillColor=#E0E0E0;rounded=0;whiteSpace=wrap;html=1;strokeColor=#919191;strokeWidth=1;dashed=0;container=0;spacing=-4;collapsible=0;fontColor=#000000;fontSize=14;" vertex="1" parent="1">
                    <mxGeometry x="520" y="210" width="310" height="1020" as="geometry"/>
                </mxCell>
                <mxCell id="6" value="&lt;b&gt;Availability Zone #3&lt;/b&gt;" style="shape=mxgraph.ibm.box;prType=zone;fontStyle=0;verticalAlign=top;align=left;spacingLeft=32;spacingTop=4;fillColor=#E0E0E0;rounded=0;whiteSpace=wrap;html=1;strokeColor=#919191;strokeWidth=1;dashed=0;container=0;spacing=-4;collapsible=0;fontColor=#000000;fontSize=14;" vertex="1" parent="1">
                    <mxGeometry x="963" y="210" width="310" height="1020" as="geometry"/>
                </mxCell>
                <mxCell id="7" value="" style="shape=link;html=1;fontSize=14;fontColor=#000000;exitX=0.5;exitY=1;exitDx=0;exitDy=0;" edge="1" parent="1" source="5" target="10">
                    <mxGeometry width="50" height="50" relative="1" as="geometry">
                        <mxPoint x="680" y="1170" as="sourcePoint"/>
                        <mxPoint x="673" y="1250" as="targetPoint"/>
                    </mxGeometry>
                </mxCell>
                <mxCell id="8" value="" style="shape=link;html=1;fontSize=15;fontColor=#000000;exitX=0.5;exitY=1;exitDx=0;exitDy=0;" edge="1" parent="1" source="6" target="10">
                    <mxGeometry width="50" height="50" relative="1" as="geometry">
                        <mxPoint x="650" y="1967" as="sourcePoint"/>
                        <mxPoint x="1068" y="1253" as="targetPoint"/>
                    </mxGeometry>
                </mxCell>
                <mxCell id="9" value="" style="shape=link;html=1;fontSize=14;fontColor=#000000;entryX=0.5;entryY=1;entryDx=0;entryDy=0;" edge="1" parent="1" source="10" target="4">
                    <mxGeometry width="50" height="50" relative="1" as="geometry">
                        <mxPoint x="165" y="970" as="sourcePoint"/>
                        <mxPoint x="200" y="1613.1693599999999" as="targetPoint"/>
                    </mxGeometry>
                </mxCell>
                <mxCell id="10" value="Common Network" style="html=1;outlineConnect=0;fillColor=#CCCCCC;strokeColor=#6881B3;gradientColor=none;gradientDirection=north;strokeWidth=2;shape=mxgraph.networks.bus;gradientColor=none;gradientDirection=north;fontColor=#ffffff;perimeter=backbonePerimeter;backboneSize=20;labelBackgroundColor=none;align=center;container=0;" vertex="1" parent="1">
                    <mxGeometry x="80.00181818181818" y="1289.9990782170607" width="1199.1136363636365" height="32.670459183673465" as="geometry"/>
                </mxCell>
                <mxCell id="11" value="" style="group" vertex="1" connectable="0" parent="1">
                    <mxGeometry x="991.75" y="1070" width="220" height="160" as="geometry"/>
                </mxCell>
                <mxCell id="12" value="" style="shape=link;html=1;fontSize=14;fontColor=#000000;exitX=0.463;exitY=-0.015;exitDx=0;exitDy=0;exitPerimeter=0;" edge="1" parent="1" source="14" target="10">
                    <mxGeometry width="50" height="50" relative="1" as="geometry">
                        <mxPoint x="685" y="1180" as="sourcePoint"/>
                        <mxPoint x="685" y="1270" as="targetPoint"/>
                    </mxGeometry>
                </mxCell>
                <mxCell id="13" value="" style="group" vertex="1" connectable="0" parent="1">
                    <mxGeometry x="410" y="1370" width="570" height="160" as="geometry"/>
                </mxCell>
                <mxCell id="14" value="&lt;b&gt;Infrastructure Services&lt;/b&gt;" style="rounded=0;whiteSpace=wrap;html=1;verticalAlign=top;align=left;dashed=1;fontSize=15;container=0;" vertex="1" parent="13">
                    <mxGeometry width="570" height="160" as="geometry"/>
                </mxCell>
                <mxCell id="15" value="DHCP" style="aspect=fixed;perimeter=ellipsePerimeter;html=1;align=center;shadow=0;dashed=0;fontColor=#4277BB;labelBackgroundColor=#ffffff;fontSize=12;spacingTop=3;image;image=img/lib/ibm/infrastructure/infrastructure_services.svg;container=0;" vertex="1" parent="13">
                    <mxGeometry x="295" y="50" width="60" height="60" as="geometry"/>
                </mxCell>
                <mxCell id="16" value="NTP" style="aspect=fixed;perimeter=ellipsePerimeter;html=1;align=center;shadow=0;dashed=0;fontColor=#4277BB;labelBackgroundColor=#ffffff;fontSize=12;spacingTop=3;image;image=img/lib/ibm/infrastructure/infrastructure_services.svg;container=0;" vertex="1" parent="13">
                    <mxGeometry x="215" y="50" width="60" height="60" as="geometry"/>
                </mxCell>
                <mxCell id="17" value="DNS" style="aspect=fixed;perimeter=ellipsePerimeter;html=1;align=center;shadow=0;dashed=0;fontColor=#4277BB;labelBackgroundColor=#ffffff;fontSize=12;spacingTop=3;image;image=img/lib/ibm/infrastructure/infrastructure_services.svg;container=0;" vertex="1" parent="13">
                    <mxGeometry x="135" y="50" width="60" height="60" as="geometry"/>
                </mxCell>
                <mxCell id="18" value="Registry" style="aspect=fixed;perimeter=ellipsePerimeter;html=1;align=center;shadow=0;dashed=0;fontColor=#4277BB;labelBackgroundColor=#ffffff;fontSize=12;spacingTop=3;image;image=img/lib/ibm/data/data_services.svg;container=0;" vertex="1" parent="1">
                    <mxGeometry x="785" y="1420" width="60" height="60" as="geometry"/>
                </mxCell>
                <mxCell id="19" value="" style="group" vertex="1" connectable="0" parent="1">
                    <mxGeometry x="90" y="250" width="1170" height="250" as="geometry"/>
                </mxCell>
                <mxCell id="20" value="&lt;b&gt;&lt;font color=&quot;#000000&quot;&gt;Control Plane Subnet&lt;/font&gt;&lt;/b&gt;" style="outlineConnect=0;gradientColor=none;html=1;whiteSpace=wrap;fontSize=12;fontStyle=0;shape=mxgraph.aws4.group;grIcon=mxgraph.aws4.group_subnet;strokeColor=#879196;fillColor=none;verticalAlign=top;align=left;spacingLeft=30;fontColor=#879196;dashed=0;container=0;" vertex="1" parent="19">
                    <mxGeometry width="1170" height="250" as="geometry"/>
                </mxCell>
                <mxCell id="21" value="" style="group" vertex="1" connectable="0" parent="19">
                    <mxGeometry x="40" y="30" width="220" height="195.32" as="geometry"/>
                </mxCell>
                <mxCell id="22" value="&lt;b&gt;master-1&lt;/b&gt;" style="rounded=0;whiteSpace=wrap;html=1;align=center;fillColor=#f8cecc;strokeColor=#b85450;verticalAlign=top;container=0;" vertex="1" parent="21">
                    <mxGeometry width="220" height="195.32" as="geometry"/>
                </mxCell>
                <mxCell id="23" value="etcd" style="html=1;dashed=0;whitespace=wrap;fillColor=#2875E2;strokeColor=#ffffff;points=[[0.005,0.63,0],[0.1,0.2,0],[0.9,0.2,0],[0.5,0,0],[0.995,0.63,0],[0.72,0.99,0],[0.5,1,0],[0.28,0.99,0]];shape=mxgraph.kubernetes.icon;prIcon=etcd;fontColor=#000000;align=center;labelPosition=center;verticalLabelPosition=bottom;verticalAlign=top;container=0;" vertex="1" parent="21">
                    <mxGeometry x="140" y="120" width="50" height="48" as="geometry"/>
                </mxCell>
                <mxCell id="24" value="OpenShift Services" style="aspect=fixed;html=1;points=[];align=center;image;fontSize=12;image=img/lib/mscae/OpenShift.svg;labelBackgroundColor=none;container=0;" vertex="1" parent="21">
                    <mxGeometry x="40" y="40" width="50" height="46" as="geometry"/>
                </mxCell>
                <mxCell id="25" value="API" style="html=1;dashed=0;whitespace=wrap;fillColor=#2875E2;strokeColor=#ffffff;points=[[0.005,0.63,0],[0.1,0.2,0],[0.9,0.2,0],[0.5,0,0],[0.995,0.63,0],[0.72,0.99,0],[0.5,1,0],[0.28,0.99,0]];shape=mxgraph.kubernetes.icon;prIcon=api;fontColor=#000000;align=center;verticalAlign=top;labelPosition=center;verticalLabelPosition=bottom;container=0;" vertex="1" parent="21">
                    <mxGeometry x="140" y="39" width="50" height="48" as="geometry"/>
                </mxCell>
                <mxCell id="26" value="CoreDNS" style="html=1;dashed=0;whitespace=wrap;fillColor=#2875E2;strokeColor=#ffffff;points=[[0.005,0.63,0],[0.1,0.2,0],[0.9,0.2,0],[0.5,0,0],[0.995,0.63,0],[0.72,0.99,0],[0.5,1,0],[0.28,0.99,0]];shape=mxgraph.kubernetes.icon;prIcon=ds;fontColor=#000000;align=center;labelPosition=center;verticalLabelPosition=bottom;verticalAlign=top;container=0;" vertex="1" parent="21">
                    <mxGeometry x="40" y="120" width="50" height="48" as="geometry"/>
                </mxCell>
                <mxCell id="27" value="" style="group" vertex="1" connectable="0" parent="19">
                    <mxGeometry x="480" y="30" width="220" height="195.32" as="geometry"/>
                </mxCell>
                <mxCell id="28" value="&lt;b&gt;master-2&lt;/b&gt;" style="rounded=0;whiteSpace=wrap;html=1;align=center;fillColor=#f8cecc;strokeColor=#b85450;verticalAlign=top;container=0;" vertex="1" parent="27">
                    <mxGeometry width="220" height="195.32" as="geometry"/>
                </mxCell>
                <mxCell id="29" value="etcd" style="html=1;dashed=0;whitespace=wrap;fillColor=#2875E2;strokeColor=#ffffff;points=[[0.005,0.63,0],[0.1,0.2,0],[0.9,0.2,0],[0.5,0,0],[0.995,0.63,0],[0.72,0.99,0],[0.5,1,0],[0.28,0.99,0]];shape=mxgraph.kubernetes.icon;prIcon=etcd;fontColor=#000000;align=center;labelPosition=center;verticalLabelPosition=bottom;verticalAlign=top;container=0;" vertex="1" parent="27">
                    <mxGeometry x="140" y="120" width="50" height="48" as="geometry"/>
                </mxCell>
                <mxCell id="30" value="OpenShift Services" style="aspect=fixed;html=1;points=[];align=center;image;fontSize=12;image=img/lib/mscae/OpenShift.svg;labelBackgroundColor=none;container=0;" vertex="1" parent="27">
                    <mxGeometry x="40" y="40" width="50" height="46" as="geometry"/>
                </mxCell>
                <mxCell id="31" value="API" style="html=1;dashed=0;whitespace=wrap;fillColor=#2875E2;strokeColor=#ffffff;points=[[0.005,0.63,0],[0.1,0.2,0],[0.9,0.2,0],[0.5,0,0],[0.995,0.63,0],[0.72,0.99,0],[0.5,1,0],[0.28,0.99,0]];shape=mxgraph.kubernetes.icon;prIcon=api;fontColor=#000000;align=center;verticalAlign=top;labelPosition=center;verticalLabelPosition=bottom;container=0;" vertex="1" parent="27">
                    <mxGeometry x="140" y="39" width="50" height="48" as="geometry"/>
                </mxCell>
                <mxCell id="32" value="CoreDNS" style="html=1;dashed=0;whitespace=wrap;fillColor=#2875E2;strokeColor=#ffffff;points=[[0.005,0.63,0],[0.1,0.2,0],[0.9,0.2,0],[0.5,0,0],[0.995,0.63,0],[0.72,0.99,0],[0.5,1,0],[0.28,0.99,0]];shape=mxgraph.kubernetes.icon;prIcon=ds;fontColor=#000000;align=center;labelPosition=center;verticalLabelPosition=bottom;verticalAlign=top;container=0;" vertex="1" parent="27">
                    <mxGeometry x="40" y="120" width="50" height="48" as="geometry"/>
                </mxCell>
                <mxCell id="33" value="" style="group" vertex="1" connectable="0" parent="19">
                    <mxGeometry x="923" y="30" width="220" height="195.32" as="geometry"/>
                </mxCell>
                <mxCell id="34" value="&lt;b&gt;master-3&lt;/b&gt;" style="rounded=0;whiteSpace=wrap;html=1;align=center;fillColor=#f8cecc;strokeColor=#b85450;verticalAlign=top;container=0;" vertex="1" parent="33">
                    <mxGeometry width="220" height="195.32" as="geometry"/>
                </mxCell>
                <mxCell id="35" value="etcd" style="html=1;dashed=0;whitespace=wrap;fillColor=#2875E2;strokeColor=#ffffff;points=[[0.005,0.63,0],[0.1,0.2,0],[0.9,0.2,0],[0.5,0,0],[0.995,0.63,0],[0.72,0.99,0],[0.5,1,0],[0.28,0.99,0]];shape=mxgraph.kubernetes.icon;prIcon=etcd;fontColor=#000000;align=center;labelPosition=center;verticalLabelPosition=bottom;verticalAlign=top;container=0;" vertex="1" parent="33">
                    <mxGeometry x="140" y="120" width="50" height="48" as="geometry"/>
                </mxCell>
                <mxCell id="36" value="OpenShift Services" style="aspect=fixed;html=1;points=[];align=center;image;fontSize=12;image=img/lib/mscae/OpenShift.svg;labelBackgroundColor=none;container=0;" vertex="1" parent="33">
                    <mxGeometry x="40" y="40" width="50" height="46" as="geometry"/>
                </mxCell>
                <mxCell id="37" value="API" style="html=1;dashed=0;whitespace=wrap;fillColor=#2875E2;strokeColor=#ffffff;points=[[0.005,0.63,0],[0.1,0.2,0],[0.9,0.2,0],[0.5,0,0],[0.995,0.63,0],[0.72,0.99,0],[0.5,1,0],[0.28,0.99,0]];shape=mxgraph.kubernetes.icon;prIcon=api;fontColor=#000000;align=center;verticalAlign=top;labelPosition=center;verticalLabelPosition=bottom;container=0;" vertex="1" parent="33">
                    <mxGeometry x="140" y="39" width="50" height="48" as="geometry"/>
                </mxCell>
                <mxCell id="38" value="CoreDNS" style="html=1;dashed=0;whitespace=wrap;fillColor=#2875E2;strokeColor=#ffffff;points=[[0.005,0.63,0],[0.1,0.2,0],[0.9,0.2,0],[0.5,0,0],[0.995,0.63,0],[0.72,0.99,0],[0.5,1,0],[0.28,0.99,0]];shape=mxgraph.kubernetes.icon;prIcon=ds;fontColor=#000000;align=center;labelPosition=center;verticalLabelPosition=bottom;verticalAlign=top;container=0;" vertex="1" parent="33">
                    <mxGeometry x="40" y="120" width="50" height="48" as="geometry"/>
                </mxCell>
                <mxCell id="39" value="" style="shape=flexArrow;endArrow=classic;startArrow=classic;html=1;fontColor=#000000;fillColor=#ffe6cc;strokeColor=#d79b00;endWidth=28;endSize=9.33;startWidth=28;startSize=9.33;" edge="1" parent="19" source="28" target="34">
                    <mxGeometry x="160" y="400" width="50" height="50" as="geometry">
                        <mxPoint x="790" y="347.3463157894739" as="sourcePoint"/>
                        <mxPoint x="1010" y="347.1599879007863" as="targetPoint"/>
                    </mxGeometry>
                </mxCell>
                <mxCell id="40" value="Anti-affinity rules" style="text;html=1;align=center;verticalAlign=middle;resizable=0;points=[];labelBackgroundColor=#ffffff;fontColor=#000000;fontSize=14;container=0;" vertex="1" connectable="0" parent="39">
                    <mxGeometry x="-0.1909" relative="1" as="geometry">
                        <mxPoint x="21" y="0.56" as="offset"/>
                    </mxGeometry>
                </mxCell>
                <mxCell id="41" value="" style="shape=flexArrow;endArrow=classic;startArrow=classic;html=1;fontColor=#000000;fillColor=#ffe6cc;strokeColor=#d79b00;endWidth=28;endSize=9.33;startWidth=28;startSize=9.33;" edge="1" parent="19">
                    <mxGeometry x="70" y="183" width="50" height="50" as="geometry">
                        <mxPoint x="260" y="130" as="sourcePoint"/>
                        <mxPoint x="480" y="130" as="targetPoint"/>
                    </mxGeometry>
                </mxCell>
                <mxCell id="42" value="Anti-affinity rules" style="text;html=1;align=center;verticalAlign=middle;resizable=0;points=[];labelBackgroundColor=#ffffff;fontColor=#000000;fontSize=14;container=0;" vertex="1" connectable="0" parent="41">
                    <mxGeometry x="-0.1909" relative="1" as="geometry">
                        <mxPoint x="21" y="0.56" as="offset"/>
                    </mxGeometry>
                </mxCell>
                <mxCell id="43" value="" style="group;container=0;" vertex="1" connectable="0" parent="1">
                    <mxGeometry x="553.8181818181819" y="1017.9362063225409" width="215" height="257.14126088025733" as="geometry"/>
                </mxCell>
                <mxCell id="44" value="&lt;font color=&quot;#000000&quot;&gt;&lt;b&gt;Worker Subnet&lt;/b&gt;&lt;/font&gt;" style="outlineConnect=0;gradientColor=none;html=1;whiteSpace=wrap;fontSize=12;fontStyle=0;shape=mxgraph.aws4.group;grIcon=mxgraph.aws4.group_subnet;strokeColor=#879196;fillColor=none;verticalAlign=top;align=left;spacingLeft=30;fontColor=#879196;dashed=0;container=0;" vertex="1" parent="1">
                    <mxGeometry x="90" y="500" width="1170" height="720" as="geometry"/>
                </mxCell>
                <mxCell id="45" value="" style="group" vertex="1" connectable="0" parent="1">
                    <mxGeometry x="98.25" y="980" width="1153.5" height="230" as="geometry"/>
                </mxCell>
                <mxCell id="46" value="" style="rounded=0;whiteSpace=wrap;html=1;align=center;fillColor=#f8cecc;strokeColor=#b85450;verticalAlign=top;container=0;" vertex="1" parent="45">
                    <mxGeometry x="891.75" y="30" width="220" height="159.99999999999997" as="geometry"/>
                </mxCell>
                <mxCell id="47" value="" style="rounded=0;whiteSpace=wrap;html=1;align=center;fillColor=#f8cecc;strokeColor=#b85450;verticalAlign=top;container=0;" vertex="1" parent="45">
                    <mxGeometry x="457.5" y="35" width="220" height="159.99999999999997" as="geometry"/>
                </mxCell>
                <mxCell id="48" value="" style="rounded=0;whiteSpace=wrap;html=1;align=center;fillColor=#f8cecc;strokeColor=#b85450;verticalAlign=top;container=0;" vertex="1" parent="45">
                    <mxGeometry x="17.5" y="35" width="220" height="159.99999999999997" as="geometry"/>
                </mxCell>
                <mxCell id="49" value="&lt;font color=&quot;#000000&quot;&gt;&lt;b&gt;Workers MachineSets&lt;/b&gt;&lt;/font&gt;" style="outlineConnect=0;gradientColor=none;html=1;whiteSpace=wrap;fontSize=12;fontStyle=0;shape=mxgraph.aws4.group;grIcon=mxgraph.aws4.group_region;strokeColor=#B6BABF;fillColor=none;verticalAlign=top;align=left;spacingLeft=30;fontColor=#B6BABF;dashed=1;container=0;" vertex="1" parent="45">
                    <mxGeometry width="1153.5" height="230" as="geometry"/>
                </mxCell>
                <mxCell id="50" value="" style="rounded=0;whiteSpace=wrap;html=1;align=center;fillColor=#f8cecc;strokeColor=#b85450;verticalAlign=top;container=0;" vertex="1" parent="45">
                    <mxGeometry x="27.5" y="46.309999999999945" width="220" height="158.69" as="geometry"/>
                </mxCell>
                <mxCell id="51" value="Workers" style="rounded=0;whiteSpace=wrap;html=1;align=center;fillColor=#f8cecc;strokeColor=#b85450;verticalAlign=top;container=0;" vertex="1" parent="45">
                    <mxGeometry x="36" y="57.6099999999999" width="220" height="157.39" as="geometry"/>
                </mxCell>
                <mxCell id="52" value="" style="aspect=fixed;perimeter=ellipsePerimeter;html=1;align=center;shadow=0;dashed=0;fontColor=#4277BB;labelBackgroundColor=#ffffff;fontSize=12;spacingTop=3;image;image=img/lib/ibm/applications/enterprise_applications.svg;container=0;" vertex="1" parent="45">
                    <mxGeometry x="64.91" y="92.40852051221714" width="45.18059991255275" height="45.18059991255275" as="geometry"/>
                </mxCell>
                <mxCell id="53" value="" style="aspect=fixed;perimeter=ellipsePerimeter;html=1;align=center;shadow=0;dashed=0;fontColor=#4277BB;labelBackgroundColor=#ffffff;fontSize=12;spacingTop=3;image;image=img/lib/ibm/applications/enterprise_applications.svg;container=0;" vertex="1" parent="45">
                    <mxGeometry x="164.91000000000003" y="92.40852051221714" width="45.18059991255275" height="45.18059991255275" as="geometry"/>
                </mxCell>
                <mxCell id="54" value="" style="aspect=fixed;perimeter=ellipsePerimeter;html=1;align=center;shadow=0;dashed=0;fontColor=#4277BB;labelBackgroundColor=#ffffff;fontSize=12;spacingTop=3;image;image=img/lib/ibm/applications/enterprise_applications.svg;container=0;" vertex="1" parent="45">
                    <mxGeometry x="164.91000000000003" y="152.41214152791508" width="45.18059991255275" height="45.18059991255275" as="geometry"/>
                </mxCell>
                <mxCell id="55" value="" style="aspect=fixed;perimeter=ellipsePerimeter;html=1;align=center;shadow=0;dashed=0;fontColor=#000000;labelBackgroundColor=#F8CECC;fontSize=12;spacingTop=3;image;image=img/lib/ibm/applications/enterprise_applications.svg;container=0;" vertex="1" parent="45">
                    <mxGeometry x="64.91" y="152.41155353581053" width="45.18059991255275" height="45.18059991255275" as="geometry"/>
                </mxCell>
                <mxCell id="56" value="" style="rounded=0;whiteSpace=wrap;html=1;align=center;fillColor=#f8cecc;strokeColor=#b85450;verticalAlign=top;container=0;" vertex="1" parent="45">
                    <mxGeometry x="467.5" y="46.309999999999945" width="220" height="158.69" as="geometry"/>
                </mxCell>
                <mxCell id="57" value="Workers" style="rounded=0;whiteSpace=wrap;html=1;align=center;fillColor=#f8cecc;strokeColor=#b85450;verticalAlign=top;container=0;" vertex="1" parent="45">
                    <mxGeometry x="476" y="57.6099999999999" width="220" height="157.39" as="geometry"/>
                </mxCell>
                <mxCell id="58" value="" style="aspect=fixed;perimeter=ellipsePerimeter;html=1;align=center;shadow=0;dashed=0;fontColor=#4277BB;labelBackgroundColor=#ffffff;fontSize=12;spacingTop=3;image;image=img/lib/ibm/applications/enterprise_applications.svg;container=0;" vertex="1" parent="45">
                    <mxGeometry x="504.90999999999997" y="92.40852051221714" width="45.18059991255275" height="45.18059991255275" as="geometry"/>
                </mxCell>
                <mxCell id="59" value="" style="aspect=fixed;perimeter=ellipsePerimeter;html=1;align=center;shadow=0;dashed=0;fontColor=#4277BB;labelBackgroundColor=#ffffff;fontSize=12;spacingTop=3;image;image=img/lib/ibm/applications/enterprise_applications.svg;container=0;" vertex="1" parent="45">
                    <mxGeometry x="604.9100000000001" y="92.40852051221714" width="45.18059991255275" height="45.18059991255275" as="geometry"/>
                </mxCell>
                <mxCell id="60" value="" style="aspect=fixed;perimeter=ellipsePerimeter;html=1;align=center;shadow=0;dashed=0;fontColor=#4277BB;labelBackgroundColor=#ffffff;fontSize=12;spacingTop=3;image;image=img/lib/ibm/applications/enterprise_applications.svg;container=0;" vertex="1" parent="45">
                    <mxGeometry x="604.9100000000001" y="152.41214152791508" width="45.18059991255275" height="45.18059991255275" as="geometry"/>
                </mxCell>
                <mxCell id="61" value="" style="aspect=fixed;perimeter=ellipsePerimeter;html=1;align=center;shadow=0;dashed=0;fontColor=#000000;labelBackgroundColor=#F8CECC;fontSize=12;spacingTop=3;image;image=img/lib/ibm/applications/enterprise_applications.svg;container=0;" vertex="1" parent="45">
                    <mxGeometry x="504.90999999999997" y="152.41155353581053" width="45.18059991255275" height="45.18059991255275" as="geometry"/>
                </mxCell>
                <mxCell id="62" value="" style="rounded=0;whiteSpace=wrap;html=1;align=center;fillColor=#f8cecc;strokeColor=#b85450;verticalAlign=top;container=0;" vertex="1" parent="45">
                    <mxGeometry x="901.75" y="41.309999999999945" width="220" height="158.69" as="geometry"/>
                </mxCell>
                <mxCell id="63" value="Workers" style="rounded=0;whiteSpace=wrap;html=1;align=center;fillColor=#f8cecc;strokeColor=#b85450;verticalAlign=top;container=0;" vertex="1" parent="45">
                    <mxGeometry x="910.25" y="52.6099999999999" width="220" height="157.39" as="geometry"/>
                </mxCell>
                <mxCell id="64" value="" style="aspect=fixed;perimeter=ellipsePerimeter;html=1;align=center;shadow=0;dashed=0;fontColor=#4277BB;labelBackgroundColor=#ffffff;fontSize=12;spacingTop=3;image;image=img/lib/ibm/applications/enterprise_applications.svg;container=0;" vertex="1" parent="45">
                    <mxGeometry x="939.1600000000001" y="87.40852051221714" width="45.18059991255275" height="45.18059991255275" as="geometry"/>
                </mxCell>
                <mxCell id="65" value="" style="aspect=fixed;perimeter=ellipsePerimeter;html=1;align=center;shadow=0;dashed=0;fontColor=#4277BB;labelBackgroundColor=#ffffff;fontSize=12;spacingTop=3;image;image=img/lib/ibm/applications/enterprise_applications.svg;container=0;" vertex="1" parent="45">
                    <mxGeometry x="1039.16" y="87.40852051221714" width="45.18059991255275" height="45.18059991255275" as="geometry"/>
                </mxCell>
                <mxCell id="66" value="" style="aspect=fixed;perimeter=ellipsePerimeter;html=1;align=center;shadow=0;dashed=0;fontColor=#4277BB;labelBackgroundColor=#ffffff;fontSize=12;spacingTop=3;image;image=img/lib/ibm/applications/enterprise_applications.svg;container=0;" vertex="1" parent="45">
                    <mxGeometry x="1039.16" y="147.41214152791508" width="45.18059991255275" height="45.18059991255275" as="geometry"/>
                </mxCell>
                <mxCell id="67" value="" style="aspect=fixed;perimeter=ellipsePerimeter;html=1;align=center;shadow=0;dashed=0;fontColor=#000000;labelBackgroundColor=#F8CECC;fontSize=12;spacingTop=3;image;image=img/lib/ibm/applications/enterprise_applications.svg;container=0;" vertex="1" parent="45">
                    <mxGeometry x="939.1600000000001" y="147.41155353581053" width="45.18059991255275" height="45.18059991255275" as="geometry"/>
                </mxCell>
                <mxCell id="68" value="" style="shape=flexArrow;endArrow=classic;startArrow=classic;html=1;fontColor=#000000;fillColor=#ffe6cc;strokeColor=#d79b00;endWidth=28;endSize=9.33;startWidth=28;startSize=9.33;entryX=0;entryY=0.5;entryDx=0;entryDy=0;exitX=1;exitY=0.5;exitDx=0;exitDy=0;" edge="1" parent="45" source="57" target="63">
                    <mxGeometry x="-103.25" y="-1315" width="50" height="50" as="geometry">
                        <mxPoint x="701.75" y="-118.69500000000016" as="sourcePoint"/>
                        <mxPoint x="919.75" y="-119.55902439024408" as="targetPoint"/>
                    </mxGeometry>
                </mxCell>
                <mxCell id="69" value="Anti-affinity rules" style="text;html=1;align=center;verticalAlign=middle;resizable=0;points=[];labelBackgroundColor=#ffffff;fontColor=#000000;fontSize=14;container=0;" vertex="1" connectable="0" parent="68">
                    <mxGeometry x="-0.1909" relative="1" as="geometry">
                        <mxPoint x="21" y="0.56" as="offset"/>
                    </mxGeometry>
                </mxCell>
                <mxCell id="70" value="" style="shape=flexArrow;endArrow=classic;startArrow=classic;html=1;fontColor=#000000;fillColor=#ffe6cc;strokeColor=#d79b00;endWidth=28;endSize=9.33;startWidth=28;startSize=9.33;exitX=1;exitY=0.5;exitDx=0;exitDy=0;" edge="1" parent="45" source="51" target="57">
                    <mxGeometry x="-93.25" y="-1305" width="50" height="50" as="geometry">
                        <mxPoint x="706" y="146.30499999999984" as="sourcePoint"/>
                        <mxPoint x="920.25" y="141.30499999999984" as="targetPoint"/>
                    </mxGeometry>
                </mxCell>
                <mxCell id="71" value="Anti-affinity rules" style="text;html=1;align=center;verticalAlign=middle;resizable=0;points=[];labelBackgroundColor=#ffffff;fontColor=#000000;fontSize=14;container=0;" vertex="1" connectable="0" parent="70">
                    <mxGeometry x="-0.1909" relative="1" as="geometry">
                        <mxPoint x="21" y="0.56" as="offset"/>
                    </mxGeometry>
                </mxCell>
                <mxCell id="72" value="&lt;font color=&quot;#000000&quot;&gt;&lt;b&gt;Infra MachineSets&lt;/b&gt;&lt;/font&gt;" style="outlineConnect=0;gradientColor=none;html=1;whiteSpace=wrap;fontSize=12;fontStyle=0;shape=mxgraph.aws4.group;grIcon=mxgraph.aws4.group_region;strokeColor=#B6BABF;fillColor=none;verticalAlign=top;align=left;spacingLeft=30;fontColor=#B6BABF;dashed=1;container=0;" vertex="1" parent="1">
                    <mxGeometry x="100" y="527.5" width="1150" height="215" as="geometry"/>
                </mxCell>
                <mxCell id="73" value="" style="group" vertex="1" connectable="0" parent="1">
                    <mxGeometry x="125" y="555" width="1108" height="160" as="geometry"/>
                </mxCell>
                <mxCell id="74" value="" style="group" vertex="1" connectable="0" parent="73">
                    <mxGeometry width="220" height="160" as="geometry"/>
                </mxCell>
                <mxCell id="75" value="" style="group" vertex="1" connectable="0" parent="74">
                    <mxGeometry width="220" height="160" as="geometry"/>
                </mxCell>
                <mxCell id="76" value="&lt;b&gt;infra-1&lt;/b&gt;" style="rounded=0;whiteSpace=wrap;html=1;align=center;fillColor=#f8cecc;strokeColor=#b85450;verticalAlign=top;container=0;" vertex="1" parent="75">
                    <mxGeometry width="220" height="160" as="geometry"/>
                </mxCell>
                <mxCell id="77" value="&lt;font color=&quot;#000000&quot;&gt;&lt;span style=&quot;background-color: rgb(248 , 206 , 204)&quot;&gt;Registry&lt;/span&gt;&lt;br&gt;&lt;/font&gt;" style="aspect=fixed;perimeter=ellipsePerimeter;html=1;align=center;shadow=0;dashed=0;fontColor=#4277BB;labelBackgroundColor=#ffffff;fontSize=12;spacingTop=3;image;image=img/lib/ibm/infrastructure/mobile_backend.svg;strokeColor=#000000;strokeWidth=2;imageBackground=none;container=0;" vertex="1" parent="75">
                    <mxGeometry x="36" y="20" width="40" height="40" as="geometry"/>
                </mxCell>
                <mxCell id="78" value="&lt;font color=&quot;#000000&quot; style=&quot;background-color: rgb(248 , 206 , 204)&quot;&gt;Router&lt;/font&gt;" style="aspect=fixed;perimeter=ellipsePerimeter;html=1;align=center;shadow=0;dashed=0;fontColor=#4277BB;labelBackgroundColor=#ffffff;fontSize=12;spacingTop=3;image;image=img/lib/ibm/infrastructure/load_balancing_routing.svg;strokeColor=#000000;strokeWidth=2;container=0;" vertex="1" parent="75">
                    <mxGeometry x="146" y="20" width="40" height="40" as="geometry"/>
                </mxCell>
                <mxCell id="79" value="&lt;font color=&quot;#000000&quot; style=&quot;background-color: rgb(248 , 206 , 204)&quot;&gt;Monitoring&lt;/font&gt;" style="aspect=fixed;perimeter=ellipsePerimeter;html=1;align=center;shadow=0;dashed=0;fontColor=#4277BB;labelBackgroundColor=#ffffff;fontSize=12;spacingTop=3;image;image=img/lib/ibm/infrastructure/monitoring.svg;strokeColor=#000000;strokeWidth=2;container=0;" vertex="1" parent="75">
                    <mxGeometry x="36" y="90" width="41.43" height="41.43" as="geometry"/>
                </mxCell>
                <mxCell id="80" value="&lt;font color=&quot;#000000&quot; style=&quot;background-color: rgb(248 , 206 , 204)&quot;&gt;Logging&lt;/font&gt;" style="aspect=fixed;perimeter=ellipsePerimeter;html=1;align=center;shadow=0;dashed=0;fontColor=#4277BB;labelBackgroundColor=#ffffff;fontSize=12;spacingTop=3;image;image=img/lib/ibm/infrastructure/monitoring_logging.svg;strokeColor=#000000;strokeWidth=2;container=0;" vertex="1" parent="75">
                    <mxGeometry x="146" y="90" width="41.43" height="41.43" as="geometry"/>
                </mxCell>
                <mxCell id="81" value="" style="group" vertex="1" connectable="0" parent="73">
                    <mxGeometry x="445" width="220" height="160" as="geometry"/>
                </mxCell>
                <mxCell id="82" value="" style="group" vertex="1" connectable="0" parent="81">
                    <mxGeometry width="220" height="160" as="geometry"/>
                </mxCell>
                <mxCell id="83" value="&lt;b&gt;infra-2&lt;/b&gt;" style="rounded=0;whiteSpace=wrap;html=1;align=center;fillColor=#f8cecc;strokeColor=#b85450;verticalAlign=top;container=0;" vertex="1" parent="82">
                    <mxGeometry width="220" height="160" as="geometry"/>
                </mxCell>
                <mxCell id="84" value="&lt;font color=&quot;#000000&quot;&gt;&lt;span style=&quot;background-color: rgb(248 , 206 , 204)&quot;&gt;Registry&lt;/span&gt;&lt;br&gt;&lt;/font&gt;" style="aspect=fixed;perimeter=ellipsePerimeter;html=1;align=center;shadow=0;dashed=0;fontColor=#4277BB;labelBackgroundColor=#ffffff;fontSize=12;spacingTop=3;image;image=img/lib/ibm/infrastructure/mobile_backend.svg;strokeColor=#000000;strokeWidth=2;imageBackground=none;container=0;" vertex="1" parent="82">
                    <mxGeometry x="36" y="20" width="40" height="40" as="geometry"/>
                </mxCell>
                <mxCell id="85" value="&lt;font color=&quot;#000000&quot; style=&quot;background-color: rgb(248 , 206 , 204)&quot;&gt;Router&lt;/font&gt;" style="aspect=fixed;perimeter=ellipsePerimeter;html=1;align=center;shadow=0;dashed=0;fontColor=#4277BB;labelBackgroundColor=#ffffff;fontSize=12;spacingTop=3;image;image=img/lib/ibm/infrastructure/load_balancing_routing.svg;strokeColor=#000000;strokeWidth=2;container=0;" vertex="1" parent="82">
                    <mxGeometry x="146" y="20" width="40" height="40" as="geometry"/>
                </mxCell>
                <mxCell id="86" value="&lt;font color=&quot;#000000&quot; style=&quot;background-color: rgb(248 , 206 , 204)&quot;&gt;Monitoring&lt;/font&gt;" style="aspect=fixed;perimeter=ellipsePerimeter;html=1;align=center;shadow=0;dashed=0;fontColor=#4277BB;labelBackgroundColor=#ffffff;fontSize=12;spacingTop=3;image;image=img/lib/ibm/infrastructure/monitoring.svg;strokeColor=#000000;strokeWidth=2;container=0;" vertex="1" parent="82">
                    <mxGeometry x="36" y="90" width="41.43" height="41.43" as="geometry"/>
                </mxCell>
                <mxCell id="87" value="&lt;font color=&quot;#000000&quot; style=&quot;background-color: rgb(248 , 206 , 204)&quot;&gt;Logging&lt;/font&gt;" style="aspect=fixed;perimeter=ellipsePerimeter;html=1;align=center;shadow=0;dashed=0;fontColor=#4277BB;labelBackgroundColor=#ffffff;fontSize=12;spacingTop=3;image;image=img/lib/ibm/infrastructure/monitoring_logging.svg;strokeColor=#000000;strokeWidth=2;container=0;" vertex="1" parent="82">
                    <mxGeometry x="146" y="90" width="41.43" height="41.43" as="geometry"/>
                </mxCell>
                <mxCell id="88" value="" style="shape=flexArrow;endArrow=classic;startArrow=classic;html=1;fontColor=#000000;fillColor=#ffe6cc;strokeColor=#d79b00;endWidth=28;endSize=9.33;startWidth=28;startSize=9.33;exitX=1;exitY=0.5;exitDx=0;exitDy=0;entryX=0;entryY=0.5;entryDx=0;entryDy=0;" edge="1" parent="73" source="76" target="83">
                    <mxGeometry x="-1" y="305" width="50" height="50" as="geometry">
                        <mxPoint x="219" y="401.85859014778316" as="sourcePoint"/>
                        <mxPoint x="439" y="401.7122066995073" as="targetPoint"/>
                    </mxGeometry>
                </mxCell>
                <mxCell id="89" value="Anti-affinity rules" style="text;html=1;align=center;verticalAlign=middle;resizable=0;points=[];labelBackgroundColor=#ffffff;fontColor=#000000;fontSize=14;container=0;" vertex="1" connectable="0" parent="88">
                    <mxGeometry x="-0.1909" relative="1" as="geometry">
                        <mxPoint x="21" y="0.56" as="offset"/>
                    </mxGeometry>
                </mxCell>
                <mxCell id="90" value="" style="group" vertex="1" connectable="0" parent="73">
                    <mxGeometry x="888" width="220" height="160" as="geometry"/>
                </mxCell>
                <mxCell id="91" value="" style="group" vertex="1" connectable="0" parent="90">
                    <mxGeometry width="220" height="160" as="geometry"/>
                </mxCell>
                <mxCell id="92" value="&lt;b&gt;infra-3&lt;/b&gt;" style="rounded=0;whiteSpace=wrap;html=1;align=center;fillColor=#f8cecc;strokeColor=#b85450;verticalAlign=top;container=0;" vertex="1" parent="91">
                    <mxGeometry width="220" height="160" as="geometry"/>
                </mxCell>
                <mxCell id="93" value="&lt;font color=&quot;#000000&quot;&gt;&lt;span style=&quot;background-color: rgb(248 , 206 , 204)&quot;&gt;Registry&lt;/span&gt;&lt;br&gt;&lt;/font&gt;" style="aspect=fixed;perimeter=ellipsePerimeter;html=1;align=center;shadow=0;dashed=0;fontColor=#4277BB;labelBackgroundColor=#ffffff;fontSize=12;spacingTop=3;image;image=img/lib/ibm/infrastructure/mobile_backend.svg;strokeColor=#000000;strokeWidth=2;imageBackground=none;container=0;" vertex="1" parent="91">
                    <mxGeometry x="43" y="20" width="40" height="40" as="geometry"/>
                </mxCell>
                <mxCell id="94" value="&lt;font color=&quot;#000000&quot; style=&quot;background-color: rgb(248 , 206 , 204)&quot;&gt;Router&lt;/font&gt;" style="aspect=fixed;perimeter=ellipsePerimeter;html=1;align=center;shadow=0;dashed=0;fontColor=#4277BB;labelBackgroundColor=#ffffff;fontSize=12;spacingTop=3;image;image=img/lib/ibm/infrastructure/load_balancing_routing.svg;strokeColor=#000000;strokeWidth=2;container=0;" vertex="1" parent="91">
                    <mxGeometry x="153" y="20" width="40" height="40" as="geometry"/>
                </mxCell>
                <mxCell id="95" value="&lt;font color=&quot;#000000&quot; style=&quot;background-color: rgb(248 , 206 , 204)&quot;&gt;Monitoring&lt;/font&gt;" style="aspect=fixed;perimeter=ellipsePerimeter;html=1;align=center;shadow=0;dashed=0;fontColor=#4277BB;labelBackgroundColor=#ffffff;fontSize=12;spacingTop=3;image;image=img/lib/ibm/infrastructure/monitoring.svg;strokeColor=#000000;strokeWidth=2;container=0;" vertex="1" parent="91">
                    <mxGeometry x="43" y="90" width="41.43" height="41.43" as="geometry"/>
                </mxCell>
                <mxCell id="96" value="&lt;font color=&quot;#000000&quot; style=&quot;background-color: rgb(248 , 206 , 204)&quot;&gt;Logging&lt;/font&gt;" style="aspect=fixed;perimeter=ellipsePerimeter;html=1;align=center;shadow=0;dashed=0;fontColor=#4277BB;labelBackgroundColor=#ffffff;fontSize=12;spacingTop=3;image;image=img/lib/ibm/infrastructure/monitoring_logging.svg;strokeColor=#000000;strokeWidth=2;container=0;" vertex="1" parent="91">
                    <mxGeometry x="153" y="90" width="41.43" height="41.43" as="geometry"/>
                </mxCell>
                <mxCell id="97" value="" style="shape=flexArrow;endArrow=classic;startArrow=classic;html=1;fontColor=#000000;fillColor=#ffe6cc;strokeColor=#d79b00;endWidth=28;endSize=9.33;startWidth=28;startSize=9.33;exitX=1;exitY=0.5;exitDx=0;exitDy=0;" edge="1" parent="73" source="83" target="92">
                    <mxGeometry x="-35" y="-65" width="50" height="50" as="geometry">
                        <mxPoint x="659" y="401.708481803081" as="sourcePoint"/>
                        <mxPoint x="879.5" y="401.99277497536946" as="targetPoint"/>
                    </mxGeometry>
                </mxCell>
                <mxCell id="98" value="Anti-affinity rules" style="text;html=1;align=center;verticalAlign=middle;resizable=0;points=[];labelBackgroundColor=#ffffff;fontColor=#000000;fontSize=14;container=0;" vertex="1" connectable="0" parent="97">
                    <mxGeometry x="-0.1909" relative="1" as="geometry">
                        <mxPoint x="21" y="0.56" as="offset"/>
                    </mxGeometry>
                </mxCell>
                <mxCell id="99" value="" style="group" vertex="1" connectable="0" parent="1">
                    <mxGeometry x="125" y="800" width="1138.5" height="185" as="geometry"/>
                </mxCell>
                <mxCell id="100" value="" style="group" vertex="1" connectable="0" parent="99">
                    <mxGeometry y="2.659999999999968" width="1138.5" height="182.34000000000003" as="geometry"/>
                </mxCell>
                <mxCell id="101" value="" style="group" vertex="1" connectable="0" parent="100">
                    <mxGeometry width="1138.5" height="182.34000000000003" as="geometry"/>
                </mxCell>
                <mxCell id="102" value="&lt;font color=&quot;#000000&quot;&gt;&lt;b&gt;Storage MachineSets&lt;/b&gt;&lt;/font&gt;" style="outlineConnect=0;gradientColor=none;html=1;whiteSpace=wrap;fontSize=12;fontStyle=0;shape=mxgraph.aws4.group;grIcon=mxgraph.aws4.group_region;strokeColor=#B6BABF;fillColor=none;verticalAlign=top;align=left;spacingLeft=30;fontColor=#B6BABF;dashed=1;container=0;" vertex="1" parent="101">
                    <mxGeometry x="-28" y="-32.65999999999997" width="1153.5" height="215" as="geometry"/>
                </mxCell>
                <mxCell id="103" value="&lt;b&gt;storage-1&lt;/b&gt;" style="rounded=0;whiteSpace=wrap;html=1;align=center;fillColor=#f8cecc;strokeColor=#b85450;verticalAlign=top;container=0;" vertex="1" parent="101">
                    <mxGeometry width="220" height="160" as="geometry"/>
                </mxCell>
                <mxCell id="104" value="OpenShift Container Storage" style="aspect=fixed;html=1;points=[];align=center;image;fontSize=12;image=img/lib/mscae/OpenShift.svg;labelBackgroundColor=none;container=0;" vertex="1" parent="101">
                    <mxGeometry x="85" y="57" width="50" height="46" as="geometry"/>
                </mxCell>
                <mxCell id="105" value="" style="shape=flexArrow;endArrow=classic;startArrow=classic;html=1;fontColor=#000000;fillColor=#ffe6cc;strokeColor=#d79b00;endWidth=28;endSize=9.33;startWidth=28;startSize=9.33;exitX=1;exitY=0.5;exitDx=0;exitDy=0;entryX=0;entryY=0.5;entryDx=0;entryDy=0;" edge="1" parent="99">
                    <mxGeometry x="5.5" y="277.6600000000001" width="50" height="50" as="geometry">
                        <mxPoint x="220" y="52.659999999999854" as="sourcePoint"/>
                        <mxPoint x="445" y="50" as="targetPoint"/>
                    </mxGeometry>
                </mxCell>
                <mxCell id="106" value="Anti-affinity rules" style="text;html=1;align=center;verticalAlign=middle;resizable=0;points=[];labelBackgroundColor=#ffffff;fontColor=#000000;fontSize=14;container=0;" vertex="1" connectable="0" parent="105">
                    <mxGeometry x="-0.1909" relative="1" as="geometry">
                        <mxPoint x="21" y="0.56" as="offset"/>
                    </mxGeometry>
                </mxCell>
                <mxCell id="107" value="" style="group" vertex="1" connectable="0" parent="99">
                    <mxGeometry x="445" width="220" height="160" as="geometry"/>
                </mxCell>
                <mxCell id="108" value="&lt;b&gt;storage-2&lt;/b&gt;" style="rounded=0;whiteSpace=wrap;html=1;align=center;fillColor=#f8cecc;strokeColor=#b85450;verticalAlign=top;container=0;" vertex="1" parent="107">
                    <mxGeometry width="220" height="160" as="geometry"/>
                </mxCell>
                <mxCell id="109" value="OpenShift Container Storage" style="aspect=fixed;html=1;points=[];align=center;image;fontSize=12;image=img/lib/mscae/OpenShift.svg;labelBackgroundColor=none;container=0;" vertex="1" parent="107">
                    <mxGeometry x="80" y="57" width="50" height="46" as="geometry"/>
                </mxCell>
                <mxCell id="110" value="" style="group" vertex="1" connectable="0" parent="99">
                    <mxGeometry x="888.5" width="220" height="160" as="geometry"/>
                </mxCell>
                <mxCell id="111" value="&lt;b&gt;storage-3&lt;/b&gt;" style="rounded=0;whiteSpace=wrap;html=1;align=center;fillColor=#f8cecc;strokeColor=#b85450;verticalAlign=top;container=0;" vertex="1" parent="110">
                    <mxGeometry width="220" height="160" as="geometry"/>
                </mxCell>
                <mxCell id="112" value="OpenShift Container Storage" style="aspect=fixed;html=1;points=[];align=center;image;fontSize=12;image=img/lib/mscae/OpenShift.svg;labelBackgroundColor=none;container=0;" vertex="1" parent="110">
                    <mxGeometry x="85" y="57" width="50" height="46" as="geometry"/>
                </mxCell>
                <mxCell id="113" value="" style="shape=flexArrow;endArrow=classic;startArrow=classic;html=1;fontColor=#000000;fillColor=#ffe6cc;strokeColor=#d79b00;endWidth=28;endSize=9.33;startWidth=28;startSize=9.33;exitX=1;exitY=0.5;exitDx=0;exitDy=0;" edge="1" parent="99">
                    <mxGeometry x="-28.5" y="-91.34000000000003" width="50" height="50" as="geometry">
                        <mxPoint x="665" y="51" as="sourcePoint"/>
                        <mxPoint x="888.4999999999995" y="51" as="targetPoint"/>
                    </mxGeometry>
                </mxCell>
                <mxCell id="114" value="Anti-affinity rules" style="text;html=1;align=center;verticalAlign=middle;resizable=0;points=[];labelBackgroundColor=#ffffff;fontColor=#000000;fontSize=14;container=0;" vertex="1" connectable="0" parent="113">
                    <mxGeometry x="-0.1909" relative="1" as="geometry">
                        <mxPoint x="21" y="0.56" as="offset"/>
                    </mxGeometry>
                </mxCell>
                <mxCell id="115" value="" style="shape=flexArrow;endArrow=classic;startArrow=classic;html=1;fontColor=#000000;fillColor=#ffe6cc;strokeColor=#d79b00;endWidth=28;endSize=9.33;startWidth=28;startSize=9.33;exitX=1;exitY=0.5;exitDx=0;exitDy=0;entryX=0;entryY=0.5;entryDx=0;entryDy=0;" edge="1" parent="1">
                    <mxGeometry x="450.5" y="354.6600000000001" width="50" height="50" as="geometry">
                        <mxPoint x="790" y="929.6599999999999" as="sourcePoint"/>
                        <mxPoint x="1015" y="927" as="targetPoint"/>
                    </mxGeometry>
                </mxCell>
                <mxCell id="116" value="Data Replication" style="text;html=1;align=center;verticalAlign=middle;resizable=0;points=[];labelBackgroundColor=#ffffff;fontColor=#000000;fontSize=14;container=0;" vertex="1" connectable="0" parent="115">
                    <mxGeometry x="-0.1909" relative="1" as="geometry">
                        <mxPoint x="21" y="0.56" as="offset"/>
                    </mxGeometry>
                </mxCell>
                <mxCell id="117" value="" style="shape=flexArrow;endArrow=classic;startArrow=classic;html=1;fontColor=#000000;fillColor=#ffe6cc;strokeColor=#d79b00;endWidth=28;endSize=9.33;startWidth=28;startSize=9.33;exitX=1;exitY=0.5;exitDx=0;exitDy=0;entryX=0;entryY=0.5;entryDx=0;entryDy=0;" edge="1" parent="1">
                    <mxGeometry x="5.5" y="356.6600000000001" width="50" height="50" as="geometry">
                        <mxPoint x="345" y="931.6599999999999" as="sourcePoint"/>
                        <mxPoint x="570" y="929" as="targetPoint"/>
                    </mxGeometry>
                </mxCell>
                <mxCell id="118" value="Data Replication" style="text;html=1;align=center;verticalAlign=middle;resizable=0;points=[];labelBackgroundColor=#ffffff;fontColor=#000000;fontSize=14;container=0;" vertex="1" connectable="0" parent="117">
                    <mxGeometry x="-0.1909" relative="1" as="geometry">
                        <mxPoint x="21" y="0.56" as="offset"/>
                    </mxGeometry>
                </mxCell>
                <mxCell id="119" value="&lt;font style=&quot;font-size: 10px&quot;&gt;&lt;b&gt;API-INT&lt;br&gt;LoadBalancer&lt;/b&gt;&lt;br&gt;&lt;/font&gt;" style="fontColor=#0066CC;verticalAlign=top;verticalLabelPosition=bottom;labelPosition=center;align=center;html=1;outlineConnect=0;fillColor=#CCCCCC;strokeColor=#6881B3;gradientColor=none;gradientDirection=north;strokeWidth=2;shape=mxgraph.networks.load_balancer;" vertex="1" parent="1">
                    <mxGeometry x="1420" y="410" width="140" height="40" as="geometry"/>
                </mxCell>
                <mxCell id="120" value="&lt;font style=&quot;font-size: 10px&quot;&gt;&lt;b&gt;API&lt;br&gt;LoadBalancer&lt;/b&gt;&lt;br&gt;&lt;/font&gt;" style="fontColor=#0066CC;verticalAlign=top;verticalLabelPosition=bottom;labelPosition=center;align=center;html=1;outlineConnect=0;fillColor=#CCCCCC;strokeColor=#6881B3;gradientColor=none;gradientDirection=north;strokeWidth=2;shape=mxgraph.networks.load_balancer;" vertex="1" parent="1">
                    <mxGeometry x="1420" y="300" width="140" height="40" as="geometry"/>
                </mxCell>
                <mxCell id="121" style="edgeStyle=orthogonalEdgeStyle;rounded=0;orthogonalLoop=1;jettySize=auto;html=1;" edge="1" parent="1" source="119">
                    <mxGeometry relative="1" as="geometry">
                        <mxPoint x="1260" y="370" as="targetPoint"/>
                    </mxGeometry>
                </mxCell>
                <mxCell id="122" value="" style="edgeStyle=orthogonalEdgeStyle;rounded=0;orthogonalLoop=1;jettySize=auto;html=1;" edge="1" parent="1" source="120">
                    <mxGeometry relative="1" as="geometry">
                        <mxPoint x="1260" y="375" as="targetPoint"/>
                    </mxGeometry>
                </mxCell>
                <mxCell id="123" value="" style="edgeStyle=orthogonalEdgeStyle;rounded=0;orthogonalLoop=1;jettySize=auto;html=1;" edge="1" parent="1" source="124">
                    <mxGeometry relative="1" as="geometry">
                        <mxPoint x="1260" y="635" as="targetPoint"/>
                    </mxGeometry>
                </mxCell>
                <mxCell id="124" value="&lt;font style=&quot;font-size: 10px&quot;&gt;&lt;b&gt;*.APPS&lt;br&gt;LoadBalancer&lt;/b&gt;&lt;br&gt;&lt;/font&gt;" style="fontColor=#0066CC;verticalAlign=top;verticalLabelPosition=bottom;labelPosition=center;align=center;html=1;outlineConnect=0;fillColor=#CCCCCC;strokeColor=#6881B3;gradientColor=none;gradientDirection=north;strokeWidth=2;shape=mxgraph.networks.load_balancer;" vertex="1" parent="1">
                    <mxGeometry x="1420" y="615" width="140" height="40" as="geometry"/>
                </mxCell>
            </root>
        </mxGraphModel>
    </diagram>
</mxfile>